<?xml version="1.0" encoding="UTF-8" ?>
<!DOCTYPE svg PUBLIC "-//W3C//DTD SVG 1.1//EN" "http://www.w3.org/Graphics/SVG/1.1/DTD/svg11.dtd">
<svg width="1024pt" height="1024pt" viewBox="0 0 1024 1024" version="1.1" xmlns="http://www.w3.org/2000/svg">
<g id="#ffffffff">
<path fill="#ffffff" opacity="1.00" d=" M 0.00 0.00 L 1024.00 0.00 L 1024.00 1024.00 L 0.00 1024.00 L 0.00 0.00 M 364.16 180.03 C 364.25 186.20 364.16 192.37 364.23 198.54 C 370.86 198.74 377.42 200.09 384.07 200.00 C 389.79 199.89 395.28 201.92 400.98 202.04 C 405.20 202.20 409.04 204.24 413.17 204.87 C 416.78 205.10 420.06 206.73 423.57 207.49 C 432.45 210.70 442.03 214.26 447.75 222.26 C 453.69 231.33 457.17 241.91 458.45 252.63 C 460.02 259.30 461.43 266.10 461.00 273.00 C 461.45 291.33 461.27 309.67 461.30 328.00 C 461.30 443.67 461.30 559.33 461.30 675.00 C 461.23 700.99 461.51 727.00 461.01 752.99 C 461.64 761.77 458.38 770.13 457.67 778.78 C 455.44 787.34 452.89 796.21 447.27 803.22 C 442.22 809.58 434.32 812.29 426.98 814.99 C 418.20 818.18 408.90 819.16 399.97 821.76 C 394.25 821.73 388.73 823.30 383.09 823.94 C 376.75 823.76 370.52 825.00 364.24 825.56 C 364.14 831.69 364.25 837.83 364.16 843.97 C 462.72 844.02 561.28 844.02 659.84 843.97 C 659.75 837.80 659.84 831.64 659.77 825.47 C 654.16 825.03 648.61 823.82 642.96 823.99 C 637.87 824.09 633.05 822.06 627.99 822.01 C 622.81 822.12 618.06 819.65 612.99 819.06 C 609.31 818.74 605.89 817.21 602.27 816.60 C 592.75 813.47 582.19 810.47 575.89 802.07 C 570.75 794.94 568.30 786.34 566.22 777.92 C 565.71 770.21 562.85 762.80 562.99 755.01 C 562.60 699.68 562.89 644.34 562.80 589.00 C 562.80 531.00 562.80 473.00 562.80 415.00 C 562.89 366.32 562.59 317.63 563.00 268.94 C 563.07 261.59 565.72 254.61 566.29 247.32 C 569.21 235.64 573.02 222.67 583.37 215.38 C 591.20 210.39 600.12 207.30 609.10 205.12 C 614.23 204.85 618.83 201.93 624.01 201.99 C 629.04 201.89 633.87 200.03 638.92 200.01 C 645.91 200.18 652.80 198.78 659.77 198.54 C 659.84 192.37 659.75 186.20 659.84 180.03 C 561.28 179.98 462.72 179.98 364.16 180.03 Z" />
</g>
<g id="#000000ff">
<path fill="#000000" opacity="1.00" d=" M 364.16 180.03 C 462.72 179.98 561.28 179.98 659.84 180.03 C 659.75 186.20 659.84 192.37 659.77 198.54 C 652.80 198.78 645.91 200.18 638.92 200.01 C 633.87 200.03 629.04 201.89 624.01 201.99 C 618.83 201.93 614.23 204.85 609.10 205.12 C 600.12 207.30 591.20 210.39 583.37 215.38 C 573.02 222.67 569.21 235.64 566.29 247.32 C 565.72 254.61 563.07 261.59 563.00 268.94 C 562.59 317.63 562.89 366.32 562.80 415.00 C 562.80 473.00 562.80 531.00 562.80 589.00 C 562.89 644.34 562.60 699.68 562.99 755.01 C 562.85 762.80 565.71 770.21 566.22 777.92 C 568.30 786.34 570.75 794.94 575.89 802.07 C 582.19 810.47 592.75 813.47 602.27 816.60 C 605.89 817.21 609.31 818.74 612.99 819.06 C 618.06 819.65 622.81 822.12 627.99 822.01 C 633.05 822.06 637.87 824.09 642.96 823.99 C 648.61 823.82 654.16 825.03 659.77 825.47 C 659.84 831.64 659.75 837.80 659.84 843.97 C 561.28 844.02 462.72 844.02 364.16 843.97 C 364.25 837.83 364.14 831.69 364.24 825.56 C 370.52 825.00 376.75 823.76 383.09 823.94 C 388.73 823.30 394.25 821.73 399.97 821.76 C 408.90 819.16 418.20 818.18 426.98 814.99 C 434.32 812.29 442.22 809.58 447.27 803.22 C 452.89 796.21 455.44 787.34 457.67 778.78 C 458.38 770.13 461.64 761.77 461.01 752.99 C 461.51 727.00 461.23 700.99 461.30 675.00 C 461.30 559.33 461.30 443.67 461.30 328.00 C 461.27 309.67 461.45 291.33 461.00 273.00 C 461.43 266.10 460.02 259.30 458.45 252.63 C 457.17 241.91 453.69 231.33 447.75 222.26 C 442.03 214.26 432.45 210.70 423.57 207.49 C 420.06 206.73 416.78 205.10 413.17 204.87 C 409.04 204.24 405.20 202.20 400.98 202.04 C 395.28 201.92 389.79 199.89 384.07 200.00 C 377.42 200.09 370.86 198.74 364.23 198.54 C 364.16 192.37 364.25 186.20 364.16 180.03 Z" />
</g>
</svg>
